<?xml version="1.0" encoding="UTF-8"?>
<svg xmlns="http://www.w3.org/2000/svg" id="Warstwa_1" data-name="Warstwa 1" viewBox="0 0 220 95">
  <defs>
    <style>
      .cls-1 {
        fill: #fff;
      }

      .cls-2 {
        fill: none;
      }
    </style>
  </defs>
  <rect class="cls-2" width="220" height="95"></rect>
  <g>
    <polygon class="cls-1" points="116.54 56.24 112.79 56.24 109.26 60.02 109.26 51.87 106.32 51.87 106.32 66.81 109.26 66.81 109.26 63.67 110.54 62.18 113.43 66.81 116.95 66.81 112.71 60.21 116.54 56.24"></polygon>
    <path class="cls-1" d="m91.79,64.32c-.2,0-.36-.06-.49-.16-.13-.11-.19-.29-.19-.55v-11.74h-2.94v12.32c0,.99.25,1.7.75,2.15.5.45,1.12.67,1.87.67.24,0,.51-.02.81-.08.3-.05.61-.13.92-.24v-2.51c-.13.03-.25.06-.36.09-.11.03-.24.04-.37.04Z"></path>
    <path class="cls-1" d="m122.52,52.32l-2.98,1.58v2.33h-1.85v2.29h1.85v5.03c0,.86.16,1.53.47,2.03.31.5.73.86,1.24,1.08.51.22,1.06.33,1.65.33.33,0,.65-.02.95-.08.3-.05.61-.13.91-.24v-2.25c-.2.06-.39.1-.57.13-.18.03-.34.04-.48.04-.47,0-.79-.16-.96-.47-.16-.31-.24-.79-.24-1.41v-4.2h2.25v-2.29h-2.25v-3.92Z"></path>
    <path class="cls-1" d="m102.83,57.61c-.42-.49-.93-.88-1.56-1.16-.62-.28-1.34-.42-2.15-.42-.91,0-1.7.16-2.36.48-.66.32-1.19.75-1.59,1.29-.4.53-.69,1.13-.89,1.79-.19.66-.29,1.32-.29,1.99s.1,1.38.29,2.03c.19.65.5,1.23.92,1.74.42.51.97.92,1.65,1.22.68.3,1.49.45,2.43.45.61,0,1.16-.05,1.64-.15.48-.1.94-.26,1.39-.49.45-.23.94-.53,1.47-.9l-1.35-2.06c-.4.34-.87.61-1.39.79-.53.18-1.06.28-1.59.28-.66,0-1.22-.16-1.69-.48-.47-.32-.75-.81-.84-1.47h7.07c.03-.21.04-.41.05-.58.01-.17.01-.32.01-.45,0-.77-.1-1.49-.31-2.16-.21-.67-.52-1.25-.93-1.75Zm-5.94,2.75c.04-.3.15-.59.31-.88.16-.28.41-.53.73-.72.32-.19.73-.29,1.23-.29.31,0,.6.05.86.14.26.09.48.22.66.4.18.17.33.38.44.61.1.22.15.47.15.74h-4.39Z"></path>
    <polygon class="cls-1" points="75.81 66.81 85.8 66.81 85.8 64.06 78.88 64.06 78.88 60.51 85.39 60.51 85.39 57.76 78.88 57.76 78.88 54.61 85.8 54.61 85.8 51.87 75.81 51.87 75.81 66.81"></polygon>
    <polygon class="cls-1" points="158.94 58.68 163.68 58.68 158.73 64.88 158.73 66.81 167.28 66.81 167.28 64.34 162.54 64.34 167.28 58.32 167.28 56.24 158.94 56.24 158.94 58.68"></polygon>
    <path class="cls-1" d="m151.22,59.01c.34-.28.77-.43,1.32-.43.57,0,1.02.15,1.34.45.32.3.56.69.72,1.18l2.57-1.03c-.4-1.07-1-1.86-1.8-2.38-.8-.51-1.74-.77-2.83-.77-.88,0-1.65.15-2.3.46-.65.31-1.19.72-1.63,1.23-.44.51-.76,1.1-.98,1.76-.21.66-.32,1.34-.32,2.03s.11,1.38.32,2.03c.21.66.54,1.25.98,1.77.43.52.98.93,1.63,1.24.65.31,1.42.46,2.3.46,1.09,0,2.03-.26,2.83-.78.8-.52,1.4-1.31,1.8-2.37l-2.57-1.03c-.16.49-.4.88-.72,1.18-.32.3-.77.45-1.34.45s-.98-.14-1.32-.43c-.33-.28-.58-.66-.74-1.11-.16-.46-.23-.93-.23-1.42s.08-.95.23-1.4c.16-.45.41-.81.74-1.1Z"></path>
    <path class="cls-1" d="m132.65,56.03c-.5,0-.99.13-1.46.4-.47.26-.86.63-1.17,1.1-.05.08-.07.17-.12.25v-1.53h-2.96v10.56h2.93v-4.39c0-.6.02-1.05.05-1.36.04-.31.09-.56.16-.76.11-.31.26-.57.45-.76.19-.19.4-.34.64-.44.24-.1.49-.15.75-.15s.51.04.76.12c.25.08.45.17.61.27l1.41-2.66c-.37-.23-.72-.39-1.05-.49-.33-.1-.67-.15-1.03-.15Z"></path>
    <polygon class="cls-1" points="188.51 56.24 186.17 62.97 183.88 56.24 180.66 56.24 184.61 65.91 182.42 71.18 185.59 71.18 191.68 56.24 188.51 56.24"></polygon>
    <path class="cls-1" d="m175.52,56.03c-.47,0-.94.08-1.41.25-.47.16-.89.44-1.25.84-.15.16-.28.36-.4.57v-1.44h-2.94v10.56h2.94v-4.99c0-.76.08-1.37.24-1.84.16-.47.39-.82.72-1.05.32-.23.71-.35,1.19-.35.63,0,1.09.19,1.38.57.29.38.44.98.44,1.79v5.87h2.96v-6.96c0-1.18-.34-2.12-1.02-2.8-.68-.68-1.62-1.02-2.84-1.02Z"></path>
    <polygon class="cls-1" points="140.99 62.97 138.69 56.24 135.48 56.24 139.42 65.91 137.24 71.18 140.41 71.18 146.49 56.24 143.32 56.24 140.99 62.97"></polygon>
    <polygon class="cls-1" points="127.94 38.13 123.21 38.13 127.94 32.11 127.94 30.03 119.61 30.03 119.61 32.47 124.35 32.47 119.4 38.67 119.4 40.6 127.94 40.6 127.94 38.13"></polygon>
    <rect class="cls-1" x="130.17" y="30.03" width="2.94" height="10.56"></rect>
    <polygon class="cls-1" points="94.61 25.66 91.42 25.66 88.44 35.88 85.78 26.54 82.76 26.54 80.1 35.88 77.12 25.66 73.91 25.66 78.43 40.6 81.41 40.6 84.27 31.03 87.13 40.6 90.09 40.6 94.61 25.66"></polygon>
    <rect class="cls-1" x="130.13" y="25.66" width="3.06" height="2.83"></rect>
    <path class="cls-1" d="m114.3,31.43c-.05-.08-.09-.16-.14-.23-.35-.48-.77-.83-1.24-1.05-.48-.22-.99-.33-1.53-.33-.8,0-1.54.21-2.21.64-.67.43-1.2,1.05-1.6,1.87-.39.81-.59,1.81-.59,2.98,0,1.06.17,2,.51,2.83.34.83.85,1.48,1.51,1.96.66.48,1.45.72,2.37.72.48,0,.96-.09,1.43-.28.47-.19.9-.53,1.29-1.02.07-.09.13-.19.19-.29v1.38h2.94v-14.94h-2.94v5.77Zm-.81,6.34c-.34.23-.75.35-1.22.35s-.88-.11-1.23-.33c-.35-.22-.62-.54-.81-.96-.19-.42-.29-.93-.29-1.51s.1-1.08.29-1.5c.19-.41.47-.73.81-.96.35-.23.76-.34,1.23-.34s.88.12,1.22.35c.34.24.61.56.79.97.19.41.28.91.28,1.48s-.09,1.07-.28,1.49c-.18.42-.45.75-.79.97Z"></path>
    <path class="cls-1" d="m139.28,34.12c-.47,0-.92.04-1.35.13-.43.08-.81.23-1.16.43-.43.24-.77.59-1.03,1.03-.26.44-.39.97-.39,1.58,0,.7.18,1.32.54,1.85.36.54.84.95,1.46,1.23.61.28,1.31.43,2.08.43.47,0,.93-.09,1.38-.27.45-.18.86-.48,1.24-.9.09-.1.17-.2.25-.32l.19,1.27h2.7v-6.69c0-1.27-.41-2.27-1.24-3-.83-.73-1.98-1.09-3.45-1.09-.91,0-1.77.12-2.55.35-.79.23-1.58.65-2.38,1.23l1.37,2.03c.43-.34.95-.62,1.56-.83.61-.22,1.19-.32,1.74-.32.6,0,1.09.13,1.47.38.38.26.57.67.57,1.24v.22h-3Zm2.67,3.28c-.22.33-.51.59-.88.77-.37.18-.77.28-1.21.28-.47,0-.85-.1-1.13-.31-.28-.21-.42-.49-.42-.85,0-.16.03-.3.1-.43.06-.13.15-.23.27-.32.14-.1.3-.17.47-.2.17-.03.36-.05.56-.05h2.57c0,.41-.11.79-.33,1.11Z"></path>
    <polygon class="cls-1" points="100.67 36.76 98.38 30.03 95.16 30.03 99.11 39.69 96.92 44.97 100.09 44.97 106.18 30.03 103.01 30.03 100.67 36.76"></polygon>
    <path class="cls-1" d="m147.7,37.98c0,.99.25,1.7.75,2.15.5.45,1.12.67,1.87.67.24,0,.51-.02.81-.08.3-.05.61-.13.92-.24v-2.51c-.13.03-.25.06-.36.09-.12.03-.24.04-.36.04-.2,0-.36-.06-.49-.16-.13-.11-.19-.29-.19-.55v-4.13l1.41-1.04v-2.66l-1.41,1.02v-4.95h-2.94v7.07l-1.18.85v2.7l1.18-.86v2.55Z"></path>
    <path class="cls-1" d="m59.09,30.85c-2.35-2.45-3.97-2.83-6.2-2.82-2.22,0-5.17,2.27-4.63,6.01,0-.11,4.39-3.26,6.88,2.1.59,1.26.88,3.69.59,5.95-.22,1.69-.8,3.25-1.66,4.3-1.94,2.35-4.93,1.07-5.91.22-.65-.58-1.36-1.71-1.73-3.21-.39-1.57-.37-5.93-.33-6.87.1-2.28.18-4.81,1.22-7.17-.68.22-2.03.28-5.01-.01-2.61-.67-3.69-.21-3.74,1l-.23.21c-1.49-.15-2.5.47-2.45,2.79,1.03-.45,2.33-.33,3.29.67,1.56,1.63,2,5.63,1.51,8.87-.25,1.64-.89,2.8-1.61,3.47-1.42,1.34-3.78,1.79-6.34-.02-.96-.68-1.64-2.42-1.66-4.61-.01-1.6.42-3.5.79-5.07.81-3.44,2.51-10.21,3.12-12.64h-5.7c-.89,3.73-3.03,10.62-3.88,15.31-.9,4.95-.15,8.29,2.69,10.67,5.05,4.24,10.91,2.11,12.47.46,0,.07,0,.15.02.22.38,5.47.54,10.08-1.3,15.47,2.77-.44,5.6-.45,8.5,0-1.98-3.95-1.44-13.62-1.42-15.26,1.24.6,2.31,1.14,3.37,1.46,3.35,1.01,6.28.49,8.36-1.14,2.08-1.63,3.03-4.57,3.47-6.42.43-1.85.72-4.67.31-7.35-.41-2.74-1.54-5.29-2.79-6.59Z"></path>
  </g>
</svg>
